# xmcd CD database file
#
# Track frame offsets:
#	150
#	37912
#	83115
#	114495
#	147767
#	172100
#	197745
#	225915
#	265757
#
# Disc length: 3626 seconds
#
# Revision: 0
# Processed by: cddbd v1.5.1PL0 Copyright (c) Steve Scherf et al.
# Submitted via: CDex 1.51
#
DISCID=6c0e2809
DTITLE=Andreas Schnermann - Welcome to my backyard
DYEAR=2002
DGENRE=Jazz
TTITLE0=the night you looked two ways
TTITLE1=flyfisher
TTITLE2=my secret friends
TTITLE3=spanish harem
TTITLE4=wurundjeri, the majestic
TTITLE5=backyard suite
TTITLE6=the english man and the girl
TTITLE7=inner child
TTITLE8=backyard blues
EXTD=YEAR: 2002
EXTT0=
EXTT1=
EXTT2=
EXTT3=
EXTT4=
EXTT5=
EXTT6=
EXTT7=
EXTT8=
PLAYORDER=
